<mxfile host="app.diagrams.net" agent="Mozilla/5.0 (Windows NT 10.0; Win64; x64) AppleWebKit/537.36 (KHTML, like Gecko) Chrome/122.0.0.0 Safari/537.36" version="24.8.0">
  <diagram name="第 1 页" id="z7ZcgsT3HiRfVmmP9ex2">
    <mxGraphModel dx="1114" dy="615" grid="1" gridSize="10" guides="1" tooltips="1" connect="1" arrows="1" fold="1" page="1" pageScale="1" pageWidth="827" pageHeight="1169" math="0" shadow="0">
      <root>
        <mxCell id="0" />
        <mxCell id="1" parent="0" />
        <mxCell id="0CPUwniSGwOVjS5oumYI-9" value="" style="edgeStyle=orthogonalEdgeStyle;rounded=0;orthogonalLoop=1;jettySize=auto;html=1;dashed=1;dashPattern=8 8;" edge="1" parent="1" source="0CPUwniSGwOVjS5oumYI-1" target="0CPUwniSGwOVjS5oumYI-2">
          <mxGeometry relative="1" as="geometry" />
        </mxCell>
        <mxCell id="0CPUwniSGwOVjS5oumYI-1" value="idp.controller" style="shape=folder;fontStyle=1;spacingTop=10;tabWidth=40;tabHeight=14;tabPosition=left;html=1;whiteSpace=wrap;" vertex="1" parent="1">
          <mxGeometry x="90" y="205" width="160" height="70" as="geometry" />
        </mxCell>
        <mxCell id="0CPUwniSGwOVjS5oumYI-10" value="" style="edgeStyle=orthogonalEdgeStyle;rounded=0;orthogonalLoop=1;jettySize=auto;html=1;dashed=1;dashPattern=8 8;" edge="1" parent="1" source="0CPUwniSGwOVjS5oumYI-2" target="0CPUwniSGwOVjS5oumYI-3">
          <mxGeometry relative="1" as="geometry" />
        </mxCell>
        <mxCell id="0CPUwniSGwOVjS5oumYI-2" value="idp.servicemanager" style="shape=folder;fontStyle=1;spacingTop=10;tabWidth=40;tabHeight=14;tabPosition=left;html=1;whiteSpace=wrap;" vertex="1" parent="1">
          <mxGeometry x="90" y="315" width="160" height="70" as="geometry" />
        </mxCell>
        <mxCell id="0CPUwniSGwOVjS5oumYI-11" value="" style="edgeStyle=orthogonalEdgeStyle;rounded=0;orthogonalLoop=1;jettySize=auto;html=1;dashed=1;dashPattern=8 8;" edge="1" parent="1" source="0CPUwniSGwOVjS5oumYI-3" target="0CPUwniSGwOVjS5oumYI-4">
          <mxGeometry relative="1" as="geometry" />
        </mxCell>
        <mxCell id="0CPUwniSGwOVjS5oumYI-3" value="idp.service" style="shape=folder;fontStyle=1;spacingTop=10;tabWidth=40;tabHeight=14;tabPosition=left;html=1;whiteSpace=wrap;" vertex="1" parent="1">
          <mxGeometry x="90" y="415" width="160" height="70" as="geometry" />
        </mxCell>
        <mxCell id="0CPUwniSGwOVjS5oumYI-4" value="idp.mapper" style="shape=folder;fontStyle=1;spacingTop=10;tabWidth=40;tabHeight=14;tabPosition=left;html=1;whiteSpace=wrap;" vertex="1" parent="1">
          <mxGeometry x="90" y="515" width="160" height="70" as="geometry" />
        </mxCell>
        <mxCell id="0CPUwniSGwOVjS5oumYI-8" value="" style="edgeStyle=orthogonalEdgeStyle;rounded=0;orthogonalLoop=1;jettySize=auto;html=1;dashed=1;dashPattern=8 8;" edge="1" parent="1" source="0CPUwniSGwOVjS5oumYI-5" target="0CPUwniSGwOVjS5oumYI-1">
          <mxGeometry relative="1" as="geometry" />
        </mxCell>
        <mxCell id="0CPUwniSGwOVjS5oumYI-5" value="idp.ui" style="shape=folder;fontStyle=1;spacingTop=10;tabWidth=40;tabHeight=14;tabPosition=left;html=1;whiteSpace=wrap;" vertex="1" parent="1">
          <mxGeometry x="90" y="100" width="160" height="70" as="geometry" />
        </mxCell>
      </root>
    </mxGraphModel>
  </diagram>
</mxfile>
